<?xml version="1.0" standalone="no"?>
<!DOCTYPE svg PUBLIC "-//W3C//DTD SVG 20010904//EN"
 "http://www.w3.org/TR/2001/REC-SVG-20010904/DTD/svg10.dtd">
<svg version="1.0" xmlns="http://www.w3.org/2000/svg"
 width="700.000000pt" height="700.000000pt" viewBox="0 0 700.000000 700.000000"
 preserveAspectRatio="xMidYMid meet">
<g transform="translate(0.000000,700.000000) scale(0.100000,-0.100000)"
fill="#000000" stroke="none">
  <path d="M3300 6000 c-650 -69 -1213 -367 -1655 -874 -177 -203 -356 -502
  -456 -761 -31 -80 -89 -269 -89 -290 0 -6 -4 -26 -10 -45 -15 -52 -44 -220
  -50 -295 -4 -38 -9 -83 -12 -100 -8 -48 -8 -360 0 -442 19 -199 19 -198 42
  -343 47 -296 195 -647 378 -897 33 -45 62 -86 65 -91 3 -5 28 -34 55 -64 274
  -304 587 -522 952 -662 275 -105 547 -156 845 -156 275 0 474 30 745 115 166
  52 437 174 570 257 17 10 53 32 81 49 70 43 209 145 278 203 33 28 62 52 65
  55 15 12 110 105 155 152 235 245 434 586 523 893 19 67 36 127 38 135 1 8 10
  53 20 100 9 47 19 103 21 125 3 22 8 56 11 75 14 97 14 422 0 520 -3 19 -7 53
  -10 75 -3 22 -9 65 -15 95 -5 30 -12 71 -15 90 -33 207 -159 515 -295 720
  -244 370 -598 672 -997 852 -47 21 -94 42 -105 47 -11 5 -76 28 -145 50 -233
  76 -445 113 -690 119 -102 3 -203 2 -250 -2z m365 -369 c359 -40 685 -171 975
  -389 160 -122 340 -312 435 -462 22 -35 43 -67 46 -70 16 -15 119 -222 149
  -300 50 -131 96 -297 111 -400 3 -19 8 -46 10 -60 21 -105 28 -416 12 -545
  -11 -88 -26 -178 -33 -200 -3 -11 -7 -31 -9 -45 -18 -121 -126 -400 -199 -515
  -11 -16 -27 -43 -36 -60 -29 -55 -160 -224 -236 -305 -130 -139 -248 -238
  -380 -320 -36 -22 -67 -42 -70 -46 -13 -14 -229 -113 -310 -142 -289 -103
  -651 -138 -950 -93 -196 30 -419 101 -585 187 -33 17 -76 39 -96 49 -96 50
  -280 179 -361 254 -26 25 -59 54 -73 66 -57 48 -183 183 -241 259 -35 46 -69
  91 -76 99 -25 33 -106 171 -148 252 -111 216 -195 497 -210 705 -3 44 -8 94
  -10 110 -5 32 -5 308 0 345 4 33 14 113 20 163 12 95 60 287 97 387 46 125
  116 262 192 377 125 190 341 414 505 523 36 24 67 46 70 49 14 16 200 118 281
  154 162 71 396 135 540 149 28 2 66 6 85 8 19 2 35 0 37 -5 2 -5 9 -5 16 -1
  15 9 362 5 442 -5z"/>
  <path d="M3305 5149 c-344 -44 -651 -220 -856 -489 -164 -214 -248 -447 -259
  -720 -9 -217 32 -424 121 -612 24 -50 57 -108 73 -128 17 -20 35 -45 42 -56
  87 -142 302 -312 499 -396 96 -41 255 -86 330 -94 33 -3 71 -8 85 -10 14 -2
  75 -1 135 3 465 31 875 335 1047 776 30 76 63 192 68 242 2 14 6 43 10 65 10
  53 10 266 0 325 -46 274 -164 510 -350 695 -180 180 -411 297 -655 332 -120
  17 -182 18 -290 4 -110 -14 -172 -29 -267 -65 l-77 -28 -53 24 c-81 36 -233
  74 -338 83 -49 5 -90 9 -91 9 -1 -1 -34 -6 -74 -10z"/>
</g>
</svg>
